<svg xmlns="http://www.w3.org/2000/svg" viewBox="0 0 1128 191" width="1128" height="191">
<rect width="1128" height="191" fill="#ffffff"/>
<g transform="translate(84.0 47.5) scale(0.8)">
<polyline points="22,40 52,40 70,60" fill="none" stroke="#111111" stroke-width="3"/>
<line x1="22" y1="60" x2="70" y2="60" stroke="#b5471f" stroke-width="3.4"/>
<polyline points="22,80 52,80 70,60" fill="none" stroke="#111111" stroke-width="3"/>
<rect x="70" y="46" width="28" height="28" fill="#ffffff" stroke="#111111" stroke-width="3"/>
<polygon points="70,46 82,46 70,58" fill="#b5471f"/>
</g>
<g fill="#111111">
<path transform="translate(228.279 124.500) scale(0.07945 -0.07945)" d="M300 -10Q230 -10 178.5 16.5Q127 43 99.5 91.5Q72 140 72 206V524Q72 590 99.5 638.5Q127 687 178.5 713.5Q230 740 300 740Q371 740 422.0 713.5Q473 687 500.5 638.5Q528 590 528 525V206Q528 140 500.5 91.5Q473 43 422.0 16.5Q371 -10 300 -10ZM300 100Q351 100 377.0 127.5Q403 155 403 206V524Q403 576 377.0 603.0Q351 630 300 630Q249 630 223.0 603.0Q197 576 197 524V206Q197 155 223.5 127.5Q250 100 300 100Z"/>
<path transform="translate(285.485 124.500) scale(0.07945 -0.07945)" d="M76 0V730H307Q380 730 433.5 703.0Q487 676 517.0 627.5Q547 579 547 513Q547 441 510.5 386.0Q474 331 412 308L557 0H417L290 290H201V0ZM201 400H307Q360 400 390.0 429.0Q420 458 420 509Q420 561 390.0 590.5Q360 620 307 620H201Z"/>
<path transform="translate(342.690 124.500) scale(0.07945 -0.07945)" d="M75 0V730H292Q366 730 420.5 702.0Q475 674 505.0 623.0Q535 572 535 502V229Q535 160 505.0 108.5Q475 57 420.5 28.5Q366 0 292 0ZM200 115H292Q346 115 378.0 145.5Q410 176 410 229V502Q410 554 378.0 584.5Q346 615 292 615H200Z"/>
</g>
<g fill="#6a6a6a">
<path transform="translate(409.027 124.500) scale(0.03014 -0.03014)" d="M304 -10Q232 -10 180.5 14.0Q129 38 101.0 83.0Q73 128 72 190H162Q162 135 199.5 103.0Q237 71 304 71Q367 71 402.5 102.0Q438 133 438 188Q438 232 414.5 265.0Q391 298 347 311L248 342Q173 365 132.5 419.0Q92 473 92 546Q92 605 118.5 648.5Q145 692 193.0 716.5Q241 741 306 741Q402 741 460.0 687.5Q518 634 519 545H429Q429 599 396.5 629.5Q364 660 305 660Q247 660 214.5 632.0Q182 604 182 554Q182 509 206.0 476.0Q230 443 275 429L375 397Q448 374 488.0 319.0Q528 264 528 190Q528 130 500.0 85.0Q472 40 421.5 15.0Q371 -10 304 -10Z"/>
<path transform="translate(431.932 124.500) scale(0.03014 -0.03014)" d="M178 -180 259 34 55 550H155L283 210Q290 193 296.0 169.5Q302 146 306 130Q310 146 316.0 169.5Q322 193 328 210L448 550H545L274 -180Z"/>
<path transform="translate(454.836 124.500) scale(0.03014 -0.03014)" d="M283 -8Q227 -8 185.5 9.5Q144 27 119.5 59.0Q95 91 90 135H180Q186 106 212.5 89.0Q239 72 283 72H325Q378 72 404.0 93.5Q430 115 430 151Q430 186 406.5 206.5Q383 227 337 234L263 246Q182 260 142.5 296.5Q103 333 103 403Q103 477 150.0 517.5Q197 558 291 558H329Q408 558 456.0 521.0Q504 484 514 421H424Q418 447 394.0 462.5Q370 478 329 478H291Q240 478 216.5 459.0Q193 440 193 402Q193 368 213.0 352.0Q233 336 276 329L350 317Q439 303 479.5 265.0Q520 227 520 155Q520 79 471.5 35.5Q423 -8 325 -8Z"/>
<path transform="translate(477.740 124.500) scale(0.03014 -0.03014)" d="M360 0Q289 0 249.5 38.0Q210 76 210 145V468H55V550H210V705H300V550H520V468H300V145Q300 82 360 82H510V0Z"/>
<path transform="translate(500.644 124.500) scale(0.03014 -0.03014)" d="M300 -10Q235 -10 186.5 16.0Q138 42 111.5 89.5Q85 137 85 200V350Q85 414 111.5 461.0Q138 508 186.5 534.0Q235 560 300 560Q365 560 413.5 534.0Q462 508 488.5 461.0Q515 414 515 350V253H173V200Q173 135 206.0 100.5Q239 66 300 66Q352 66 384.0 84.5Q416 103 423 140H513Q504 71 445.5 30.5Q387 -10 300 -10ZM427 313V350Q427 415 394.5 450.0Q362 485 300 485Q239 485 206.0 450.0Q173 415 173 350V321H434Z"/>
<path transform="translate(523.548 124.500) scale(0.03014 -0.03014)" d="M66 0V550H145V484H163L149 460Q149 506 173.5 533.0Q198 560 240 560Q286 560 311.0 526.0Q336 492 336 430L309 484H351L332 460Q332 506 357.5 533.0Q383 560 425 560Q477 560 505.5 521.0Q534 482 534 418V0H451V419Q451 453 436.5 472.0Q422 491 394 491Q367 491 351.5 472.5Q336 454 336 420V0H264V419Q264 454 248.5 472.5Q233 491 205 491Q177 491 163.0 472.5Q149 454 149 420V0Z"/>
</g>
<g fill="#6a6a6a">
<path transform="translate(799.418 124.500) scale(0.02055 -0.02055)" d="M92 0V730H318Q383 730 432.0 703.5Q481 677 508.0 630.0Q535 583 535 520Q535 446 496.5 393.0Q458 340 392 320L545 0H439L299 310H182V0ZM182 391H318Q374 391 408.0 426.5Q442 462 442 520Q442 579 408.0 614.0Q374 649 318 649H182Z"/>
<path transform="translate(812.568 124.500) scale(0.02055 -0.02055)" d="M300 -10Q235 -10 186.5 16.0Q138 42 111.5 89.5Q85 137 85 200V350Q85 414 111.5 461.0Q138 508 186.5 534.0Q235 560 300 560Q365 560 413.5 534.0Q462 508 488.5 461.0Q515 414 515 350V253H173V200Q173 135 206.0 100.5Q239 66 300 66Q352 66 384.0 84.5Q416 103 423 140H513Q504 71 445.5 30.5Q387 -10 300 -10ZM427 313V350Q427 415 394.5 450.0Q362 485 300 485Q239 485 206.0 450.0Q173 415 173 350V321H434Z"/>
<path transform="translate(825.719 124.500) scale(0.02055 -0.02055)" d="M283 -8Q227 -8 185.5 9.5Q144 27 119.5 59.0Q95 91 90 135H180Q186 106 212.5 89.0Q239 72 283 72H325Q378 72 404.0 93.5Q430 115 430 151Q430 186 406.5 206.5Q383 227 337 234L263 246Q182 260 142.5 296.5Q103 333 103 403Q103 477 150.0 517.5Q197 558 291 558H329Q408 558 456.0 521.0Q504 484 514 421H424Q418 447 394.0 462.5Q370 478 329 478H291Q240 478 216.5 459.0Q193 440 193 402Q193 368 213.0 352.0Q233 336 276 329L350 317Q439 303 479.5 265.0Q520 227 520 155Q520 79 471.5 35.5Q423 -8 325 -8Z"/>
<path transform="translate(838.870 124.500) scale(0.02055 -0.02055)" d="M300 -10Q235 -10 186.5 16.0Q138 42 111.5 89.5Q85 137 85 200V350Q85 414 111.5 461.0Q138 508 186.5 534.0Q235 560 300 560Q365 560 413.5 534.0Q462 508 488.5 461.0Q515 414 515 350V253H173V200Q173 135 206.0 100.5Q239 66 300 66Q352 66 384.0 84.5Q416 103 423 140H513Q504 71 445.5 30.5Q387 -10 300 -10ZM427 313V350Q427 415 394.5 450.0Q362 485 300 485Q239 485 206.0 450.0Q173 415 173 350V321H434Z"/>
<path transform="translate(852.021 124.500) scale(0.02055 -0.02055)" d="M252 -10Q165 -10 115.0 34.5Q65 79 65 155Q65 232 115.0 276.0Q165 320 250 320H420V375Q420 426 389.5 453.5Q359 481 303 481Q254 481 221.0 460.5Q188 440 183 405H93Q102 476 160.0 518.0Q218 560 305 560Q400 560 455.0 511.0Q510 462 510 378V0H422V105H407L422 120Q422 60 375.5 25.0Q329 -10 252 -10ZM274 61Q338 61 379.0 93.0Q420 125 420 175V253H252Q207 253 181.0 228.0Q155 203 155 160Q155 114 186.5 87.5Q218 61 274 61Z"/>
<path transform="translate(865.171 124.500) scale(0.02055 -0.02055)" d="M111 0V550H199V445H220L191 380Q191 469 229.5 514.5Q268 560 344 560Q431 560 482.5 505.5Q534 451 534 358V325H444V350Q444 415 412.5 449.5Q381 484 323 484Q266 484 233.5 449.0Q201 414 201 350V0Z"/>
<path transform="translate(878.322 124.500) scale(0.02055 -0.02055)" d="M304 -10Q238 -10 188.5 15.0Q139 40 112.0 87.5Q85 135 85 200V350Q85 416 112.0 463.0Q139 510 188.5 535.0Q238 560 304 560Q399 560 457.0 509.0Q515 458 518 370H428Q425 423 392.5 451.5Q360 480 304 480Q245 480 210.0 446.5Q175 413 175 351V200Q175 138 210.0 104.0Q245 70 304 70Q360 70 392.5 99.0Q425 128 428 180H518Q515 92 457.0 41.0Q399 -10 304 -10Z"/>
<path transform="translate(891.473 124.500) scale(0.02055 -0.02055)" d="M92 0V730H182V550V445H201L182 424Q182 489 221.0 524.5Q260 560 329 560Q412 560 461.0 509.0Q510 458 510 370V0H420V360Q420 419 388.5 451.5Q357 484 303 484Q247 484 214.5 449.0Q182 414 182 350V0Z"/>
<path transform="translate(917.774 124.500) scale(0.02055 -0.02055)" d="M360 0Q289 0 249.5 38.0Q210 76 210 145V468H55V550H210V705H300V550H520V468H300V145Q300 82 360 82H510V0Z"/>
<path transform="translate(930.925 124.500) scale(0.02055 -0.02055)" d="M92 0V730H182V550V445H201L182 424Q182 489 221.0 524.5Q260 560 329 560Q412 560 461.0 509.0Q510 458 510 370V0H420V360Q420 419 388.5 451.5Q357 484 303 484Q247 484 214.5 449.0Q182 414 182 350V0Z"/>
<path transform="translate(944.075 124.500) scale(0.02055 -0.02055)" d="M252 -10Q165 -10 115.0 34.5Q65 79 65 155Q65 232 115.0 276.0Q165 320 250 320H420V375Q420 426 389.5 453.5Q359 481 303 481Q254 481 221.0 460.5Q188 440 183 405H93Q102 476 160.0 518.0Q218 560 305 560Q400 560 455.0 511.0Q510 462 510 378V0H422V105H407L422 120Q422 60 375.5 25.0Q329 -10 252 -10ZM274 61Q338 61 379.0 93.0Q420 125 420 175V253H252Q207 253 181.0 228.0Q155 203 155 160Q155 114 186.5 87.5Q218 61 274 61Z"/>
<path transform="translate(957.226 124.500) scale(0.02055 -0.02055)" d="M360 0Q289 0 249.5 38.0Q210 76 210 145V468H55V550H210V705H300V550H520V468H300V145Q300 82 360 82H510V0Z"/>
<path transform="translate(983.527 124.500) scale(0.02055 -0.02055)" d="M111 0V550H199V445H220L191 380Q191 469 229.5 514.5Q268 560 344 560Q431 560 482.5 505.5Q534 451 534 358V325H444V350Q444 415 412.5 449.5Q381 484 323 484Q266 484 233.5 449.0Q201 414 201 350V0Z"/>
<path transform="translate(996.678 124.500) scale(0.02055 -0.02055)" d="M299 -10Q204 -10 147.0 46.5Q90 103 90 200V550H180V200Q180 138 212.0 103.5Q244 69 299 69Q355 69 387.5 103.5Q420 138 420 200V550H510V200Q510 103 452.0 46.5Q394 -10 299 -10Z"/>
<path transform="translate(1009.829 124.500) scale(0.02055 -0.02055)" d="M92 0V550H182V445H201L182 424Q182 489 221.0 524.5Q260 560 329 560Q412 560 461.0 509.0Q510 458 510 370V0H420V360Q420 419 388.5 450.5Q357 482 303 482Q247 482 214.5 448.0Q182 414 182 350V0Z"/>
<path transform="translate(1022.979 124.500) scale(0.02055 -0.02055)" d="M283 -8Q227 -8 185.5 9.5Q144 27 119.5 59.0Q95 91 90 135H180Q186 106 212.5 89.0Q239 72 283 72H325Q378 72 404.0 93.5Q430 115 430 151Q430 186 406.5 206.5Q383 227 337 234L263 246Q182 260 142.5 296.5Q103 333 103 403Q103 477 150.0 517.5Q197 558 291 558H329Q408 558 456.0 521.0Q504 484 514 421H424Q418 447 394.0 462.5Q370 478 329 478H291Q240 478 216.5 459.0Q193 440 193 402Q193 368 213.0 352.0Q233 336 276 329L350 317Q439 303 479.5 265.0Q520 227 520 155Q520 79 471.5 35.5Q423 -8 325 -8Z"/>
<path transform="translate(1036.130 124.500) scale(0.02055 -0.02055)" d="M300 -10Q262 -10 239.5 12.0Q217 34 217 71Q217 110 239.5 133.0Q262 156 300 156Q338 156 360.5 133.0Q383 110 383 71Q383 34 360.5 12.0Q338 -10 300 -10Z"/>
</g>
</svg>