<svg xmlns="http://www.w3.org/2000/svg" viewBox="0 0 300 300" width="300" height="300">
<g fill="#111111">
<path transform="translate(43.738 167.816) scale(0.10087 -0.10087)" d="M300 -10Q230 -10 178.5 16.5Q127 43 99.5 91.5Q72 140 72 206V524Q72 590 99.5 638.5Q127 687 178.5 713.5Q230 740 300 740Q371 740 422.0 713.5Q473 687 500.5 638.5Q528 590 528 525V206Q528 140 500.5 91.5Q473 43 422.0 16.5Q371 -10 300 -10ZM300 100Q351 100 377.0 127.5Q403 155 403 206V524Q403 576 377.0 603.0Q351 630 300 630Q249 630 223.0 603.0Q197 576 197 524V206Q197 155 223.5 127.5Q250 100 300 100Z"/>
<path transform="translate(119.387 167.816) scale(0.10087 -0.10087)" d="M76 0V730H307Q380 730 433.5 703.0Q487 676 517.0 627.5Q547 579 547 513Q547 441 510.5 386.0Q474 331 412 308L557 0H417L290 290H201V0ZM201 400H307Q360 400 390.0 429.0Q420 458 420 509Q420 561 390.0 590.5Q360 620 307 620H201Z"/>
<path transform="translate(195.037 167.816) scale(0.10087 -0.10087)" d="M75 0V730H292Q366 730 420.5 702.0Q475 674 505.0 623.0Q535 572 535 502V229Q535 160 505.0 108.5Q475 57 420.5 28.5Q366 0 292 0ZM200 115H292Q346 115 378.0 145.5Q410 176 410 229V502Q410 554 378.0 584.5Q346 615 292 615H200Z"/>
</g>
<rect x="90.60" y="194.82" width="118.80" height="11.00" fill="#b5471f"/>
</svg>